# xmcd CD database file
#
# Track frame offsets:
#	150
#	18716
#	44010
#	62382
#
# Disc length: 1074 seconds
#
# Revision: 0
# Processed by: cddbd v1.4PL0 Copyright (c) Steve Scherf et al.
# Submitted via: CDex 1.50
#
DISCID=30043004
DTITLE=Spookrijders - Zwaai je handen
DYEAR=1996
DGENRE=Nederhop
TTITLE0=Zwaai je handen ( Radio edit )
TTITLE1=Zwaai je handen ( Mega spectaculaire computer club mix )
TTITLE2=Op en neer ( Bonustrack )
TTITLE3=Zwaai je handen ( Ga maar uit je dak mix )
EXTD=YEAR: 1996
EXTT0=
EXTT1=
EXTT2=
EXTT3=
PLAYORDER=
